<?xml version="1.0" encoding="UTF-8" standalone="no"?>
<svg
   xmlns:dc="http://purl.org/dc/elements/1.1/"
   xmlns:cc="http://creativecommons.org/ns#"
   xmlns:rdf="http://www.w3.org/1999/02/22-rdf-syntax-ns#"
   xmlns:svg="http://www.w3.org/2000/svg"
   xmlns="http://www.w3.org/2000/svg"
   xmlns:sodipodi="http://sodipodi.sourceforge.net/DTD/sodipodi-0.dtd"
   xmlns:inkscape="http://www.inkscape.org/namespaces/inkscape"
   id="svg2"
   viewBox="0 0 524.50396 524.50347"
   version="1.1"
   sodipodi:docname="fun-fox.svg"
   width="524.50397"
   height="524.50348"
   inkscape:version="0.92.3 (2405546, 2018-03-11)">
  <defs
     id="defs42" />
  <sodipodi:namedview
     pagecolor="#ffffff"
     bordercolor="#666666"
     borderopacity="1"
     objecttolerance="10"
     gridtolerance="10"
     guidetolerance="10"
     inkscape:pageopacity="0"
     inkscape:pageshadow="2"
     inkscape:window-width="768"
     inkscape:window-height="480"
     id="namedview40"
     showgrid="false"
     fit-margin-top="0"
     fit-margin-left="0"
     fit-margin-right="0"
     fit-margin-bottom="0"
     inkscape:zoom="0.53574478"
     inkscape:cx="262.25198"
     inkscape:cy="378.59607"
     inkscape:window-x="490"
     inkscape:window-y="201"
     inkscape:window-maximized="0"
     inkscape:current-layer="svg2" />
  <path
     style="fill:#ff6600"
     inkscape:connector-curvature="0"
     d="m 311.15442,39.137421 c -0.3652,0.0373 -2.6103,1.1631 -4.987,2.5025 -2.3768,1.3394 -4.9757,2.6829 -5.7787,2.9866 -1.5761,0.59606 -5.6486,3.008 -8.1368,4.8289 -2.2392,1.6388 -7.9247,8.5544 -8.5277,10.365 -0.2798,0.8397 -0.9718,2.8764 -1.5315,4.5232 -0.5597,1.6468 -1.0068,3.117 -0.9912,3.2697 0.016,0.1527 -0.3972,1.0304 -0.93,1.95 -1.0952,1.8901 -0.7931,1.8218 -7.9362,1.4901 -7.1672,-0.33278 -19.433,2.1087 -29.044,5.777 -5.6494,2.156 -9.2665,4.03 -10.726,5.5426 -0.275,0.28516 -0.8989,0.67474 -1.385,0.87883 -0.4861,0.2041 -1.8965,1.3242 -3.145,2.4872 -1.2485,1.163 -3.1585,2.9131 -4.2473,3.8787 -2.1955,1.9472 -6.7422,8.5501 -6.9726,10.137 -0.081,0.558999 -0.2631,1.106899 -0.4058,1.216699 -0.2705,0.20789 -1.1162,2.4352 -2.5987,6.8213 -0.9045,2.6758 -0.9935,4.7632 -0.1943,4.7553 0.2533,-0.003 0.7452,-0.0533 1.0822,-0.12199 1.6644,-0.33913 4.8078,1.9752 6.2666,4.6141 1.0644,1.9253 1.7306,6.655 1.2584,8.9392 -0.8088,3.9129 -1.1514,4.8704 -2.2511,6.1636 -1.3815,1.6246 -1.9881,2.006 -5.3829,3.4762 -1.3594,0.58871 -2.7845,1.2554 -3.1677,1.4756 -1.5921,0.91554 -4.9361,1.7764 -12.124,3.1276 l -3.4437,0.9162 c -5.4636,0.97496 -13.099,1.7152 -18.251,1.011 -2.468,-0.33736 -5.3275,-0.7199 -6.3535,-0.83759 -1.9988,-0.22927 -3.4503,-0.5305 -5.275,-1.109 -2.0692,-0.65599 -13.001,-3.2697 -13.475,-3.2213 -0.1592,0.0163 -0.8148,0.90835 -1.4569,1.9807 -0.6422,1.0724 -1.8374,2.534 -2.6518,3.2549 -1.9434,1.7203 -2.1845,2.7073 -1.2408,5.0004 0.4076,0.99011 0.8332,2.7426 0.9514,3.9009 0.1183,1.1583 0.4054,2.477 0.6323,2.9196 0.2268,0.44264 0.6914,1.5171 1.0395,2.3941 0.5363,1.352 2.7182,5.0172 5.4686,9.2121 0.3738,0.57018 0.9986,1.5848 1.3939,2.2542 0.3952,0.66939 1.4041,1.9148 2.2412,2.7668 2.2977,2.3387 8.4202,6.7978 9.5598,6.9624 0.5527,0.0798 1.6915,0.36308 2.5299,0.62886 0.8382,0.26579 2.6028,0.48593 3.9211,0.48682 1.3181,7.2e-4 3.5957,0.11698 5.061,0.25519 5.264,0.49648 11.544,-0.26932 17.926,-3.1785 1.9103,-0.87071 3.3736,-1.5384 4.4349,-1.9276 3.3822,-1.6957 7.7752,-4.0167 7.9966,-4.2846 0.1714,-0.20748 0.5824,-0.40513 0.9115,-0.43873 1.4746,-0.15057 6.8701,-4.7398 9.6046,-8.1703 0.7038,-0.88301 1.5162,-2.3348 1.8136,-3.227 0.3465,-1.0402 0.8328,-1.6351 1.3559,-1.7285 0.3137,-0.0561 0.6377,0.0682 0.9611,0.38578 0.2385,0.2342 0.6363,1.3135 0.8901,2.3978 0.2679,1.1454 1.1756,3.1143 2.1722,4.6865 1.9509,3.0779 2.8446,6.4463 2.1554,8.1333 -0.6714,1.6437 -1.4447,1.5028 -2.7258,-0.51668 -1.4758,-2.3263 -3.0399,-3.6762 -4.1316,-3.5647 -1.4537,0.14844 -5.7405,2.336 -8.4755,4.3335 -3.3418,2.4407 -5.0543,4.0201 -7.9411,7.3092 -1.2799,1.4582 -2.9416,3.1928 -3.685,3.8559 -0.051,0.0451 -0.1184,0.12274 -0.1776,0.17943 l -3.4942,4.0323 c -1.7265,1.9581 -3.1183,3.7385 -3.0973,3.9687 0.02,0.23027 -0.5063,1.1605 -1.1716,2.0668 -0.6654,0.90628 -2.0785,2.9348 -3.1351,4.5026 -1.0566,1.5677 -2.3216,3.4432 -2.8119,4.17 -0.4903,0.72681 -0.7492,1.3915 -0.5752,1.4759 0.3548,0.17215 4.0282,-1.8495 5.4216,-2.9847 0.498,-0.40572 1.1265,-0.76024 1.3944,-0.7876 0.268,-0.0274 0.6262,-0.21788 0.7975,-0.42708 0.1713,-0.2092 1.5206,-1.1661 2.9975,-2.1265 l 4.3055,-2.1794 v -0.0114 c 1.881,-0.97545 3.873,-1.9554 5.8177,-2.8293 5.654,-2.5406 9.0342,-4.2475 10.41,-5.2454 0.7888,-0.57208 1.7687,-1.0678 2.1682,-1.1086 1.0353,-0.10572 2.2314,1.7139 3.08,4.663 1.0024,3.4835 2.3299,6.0102 5.8937,11.231 0.7725,1.1315 5.1508,4.6925 7.3131,5.9475 0.97,0.56302 2.6675,1.5798 3.7674,2.2538 2.9921,1.8336 7.2893,3.0706 15.728,4.5236 1.1839,0.20386 2.7162,1.3258 2.7895,2.0426 0.073,0.71181 -0.8691,1.9898 -1.5184,2.0562 -0.2793,0.0285 -1.633,0.73216 -3.0089,1.5631 -3.188,1.9253 -7.7689,4.3305 -8.3658,4.3914 -0.2527,0.0258 -1.4593,0.87049 -2.6776,1.8749 -3.9382,3.2471 -6.1224,4.9228 -6.453,4.9566 -0.4966,0.0507 -11.786,14.023 -13.953,17.267 -1.0546,1.5796 -2.2258,3.6784 -2.601,4.6554 -0.1636,0.42612 -0.4267,1.0046 -0.7106,1.6165 6.8976,-0.68615 14.931,-1.5279 21.314,7.3177 7.0181,9.7266 12.653,19.061 11.973,42.561 -0.6798,23.5 5.181,28.389 7.6529,31.618 2.4718,3.2286 3.4926,7.9464 -0.7663,12.13 -3.74,3.674 -17.086,18.442 -20.261,23.073 1.1721,1.9015 2.1443,3.529 2.4482,4.1168 0.4771,0.92274 1.2641,2.3712 1.7449,3.2093 0.4807,0.83804 1.3531,2.4704 1.9373,3.6275 0.5842,1.157 1.2889,2.4124 1.5752,2.7887 0.7402,0.97303 2.6945,4.9254 3.4705,7.0196 0.362,0.97695 0.906,2.0874 1.2084,2.469 0.3024,0.38158 0.8129,1.7398 1.1377,3.0178 1.647,6.4804 2.1176,8.0891 2.4092,8.3608 0.5826,0.54278 8.7451,1.5419 10.781,1.3188 2.4823,-0.27228 8.1521,-1.9449 10.737,-3.1703 2.9653,-1.4057 3.0226,-1.6746 1.7347,-9.3024 -0.5925,-3.5086 -1.2253,-6.5609 -1.3953,-6.7821 -0.4383,-0.57025 -1.5127,-9.7198 -1.1462,-9.7572 0.3893,-0.0398 3.4771,5.0526 3.5605,5.8698 0.035,0.34039 0.2179,0.75296 0.4057,0.92645 0.3118,0.28789 0.9996,2.2433 1.9333,5.5059 0.1974,0.68961 0.6472,2.8477 0.9978,4.8064 0.4347,2.4295 0.8117,3.6633 1.1896,3.8651 0.901,0.48099 3.1233,-0.22058 5.4254,-1.7062 1.1839,-0.76395 3.1623,-2.0468 4.3989,-2.8457 1.2365,-0.79884 3.3274,-2.1139 4.6324,-2.9272 7.2181,-4.4982 13.745,-9.1024 13.542,-9.5518 -0.098,-0.21765 -1.3826,-0.89677 -2.8499,-1.5064 -3.076,-1.278 -4.148,-2.2005 -4.1293,-3.5419 0.016,-1.0997 0.5854,-1.2079 4.622,-0.88672 2.2796,0.18139 5.2392,-0.27666 5.9893,-0.92263 0.1864,-0.16054 0.9742,-0.56881 1.7499,-0.9161 0.7757,-0.34728 2.375,-1.2126 3.5488,-1.9178 1.1737,-0.70519 2.3565,-1.3076 2.6284,-1.3399 0.2719,-0.0322 0.8675,-0.41796 1.3292,-0.86163 0.4617,-0.44372 1.1182,-0.84704 1.4535,-0.88581 0.3353,-0.0386 1.0352,-0.49645 1.5548,-1.0229 0.5194,-0.52643 1.4068,-1.2519 1.9777,-1.6192 1.4084,-0.90598 4.9449,-3.6113 5.6104,-4.2944 0.716,-0.73487 11.247,-7.2093 17.726,-10.889 0.4791,-0.27214 1.1033,-0.65903 1.3861,-0.86744 0.283,-0.20841 1.1505,-0.64848 1.929,-0.9689 0.7784,-0.32043 1.7303,-0.74791 2.1149,-0.95335 1.1287,-0.60293 7.2263,-2.5222 10.537,-3.3227 1.8175,-0.43939 5.6558,-0.94096 9.4605,-1.231 6.979,-0.53209 8.4428,-0.36871 13.427,1.5094 3.4314,1.293 5.5058,2.6434 8.2939,5.398 3.9237,3.8766 6.875,9.2644 5.1692,9.4386 -0.6537,0.0668 -2.4109,-1.3681 -4.5883,-3.7485 -3.5745,-3.908 -8.7868,-6.6842 -11.952,-6.361 -0.6432,0.0657 -1.2952,-0.0336 -1.4398,-0.22167 -0.1602,-0.20842 -2.953,-0.0672 -7.1527,0.36163 -4.1998,0.42883 -6.9635,0.85497 -7.0782,1.0914 -0.1035,0.21335 -0.8663,0.45752 -1.7075,0.54304 -1.7734,0.18107 -5.5879,1.3692 -8.7193,2.7338 -1.2013,0.52347 -2.5085,0.99354 -2.913,1.0348 -0.7036,0.0719 -1.3439,0.35939 -3.7877,1.7233 -0.6045,0.33741 -1.5354,0.66374 -2.0583,0.71713 -0.5727,0.0585 -1.2363,0.50249 -1.6708,1.1269 -0.6325,0.9089 -6.4943,4.856 -7.3633,4.9573 -0.3331,0.0388 -4.4798,2.6744 -6.8056,4.3243 -0.7149,0.50713 -1.5649,0.9548 -1.881,0.98708 -0.3162,0.0323 -1.0248,0.51971 -1.582,1.0948 -1.1363,1.1729 -4.1019,3.1748 -4.8188,3.2458 -0.1927,0.0198 -1.2318,0.59284 -2.5439,1.3774 3.1567,5.407 4.5836,9.5391 12.001,13.384 8.1993,4.2505 18.934,1.9496 18.934,1.9496 0,0 -4.4125,6.6089 -8.4469,10.368 -4.0344,3.7591 -9.8039,7.5624 -14.363,7.4925 -3.3294,-0.0512 -5.519,-1.5796 -5.519,-1.5796 0,0 4.6454,12.658 15.424,14.636 10.779,1.9789 31.775,-3.5186 34.422,-5.1278 2.6473,-1.6092 5.3074,-3.0882 5.3074,-3.0882 0,0 -2.579,10.171 -1.1672,13.508 0.3184,0.75243 0.5917,1.42 0.8414,2.0341 0.5452,-0.26361 1.0173,-0.48831 1.2421,-0.58767 0.485,-0.21447 2.2256,-1.0408 3.8682,-1.8352 1.6426,-0.79444 3.3206,-1.4797 3.7275,-1.5212 0.4069,-0.0416 1.0408,-0.33415 1.4084,-0.65079 0.5816,-0.50094 5.6815,-2.9559 15.803,-7.605 4.3826,-2.013 6.6582,-3.1582 7.0036,-3.5149 0.1743,-0.17998 0.6741,-0.35692 1.1111,-0.40152 0.4371,-0.0446 0.9691,-0.34931 1.1871,-0.67428 0.2181,-0.32502 1.0001,-0.8193 1.7314,-1.0985 0.7312,-0.27928 1.8434,-0.94644 2.4765,-1.4742 0.6329,-0.52778 2.3842,-1.8029 3.8923,-2.8401 4.6116,-3.1714 7.0392,-5.2988 11.051,-9.6892 3.8602,-4.2244 5.5671,-6.4118 5.5033,-7.0372 -0.019,-0.18435 0.432,-0.86571 0.9971,-1.519 1.076,-1.2438 2.8802,-4.1305 4.7164,-7.5214 0.5971,-1.1027 1.4695,-2.6015 1.9297,-3.331 1.0414,-1.6508 3.2589,-7.2392 3.1802,-8.0098 -0.032,-0.31401 0.1551,-0.94496 0.41,-1.4014 0.4848,-0.8683 1.0012,-3.5424 1.4667,-7.639 0.1515,-1.3336 0.3483,-2.681 0.4432,-2.9948 0.2179,-0.72068 0.2739,-5.4762 0.1072,-9.7815 -0.1691,-4.3722 -2.1823,-11.627 -4.2703,-15.418 -4.3612,-7.9174 -7.0587,-11.262 -11.859,-14.701 -3.5657,-2.5545 -3.9824,-2.7666 -7.0928,-3.6771 -0.9406,-0.27538 -2.4023,-0.97751 -3.2583,-1.5569 -0.8561,-0.57933 -1.7198,-1.0342 -1.9125,-1.0145 -0.1927,0.0197 -1.0554,-0.21761 -1.9195,-0.51837 -5.8907,-2.0504 -9.8434,-2.5067 -18.692,-2.1816 -4.4562,0.16374 -6.2102,0.37717 -9.1824,1.1334 -2.0208,0.5142 -4.0542,1.1206 -4.5058,1.3473 -1.9353,0.97112 -6.415,3.8448 -7.3752,4.7281 -0.5735,0.52774 -1.1732,0.97242 -1.3391,0.98936 -0.4054,0.0414 -4.7815,5.5302 -4.7391,5.9453 0.019,0.18 -0.3689,0.96588 -0.87,1.748 -1.3212,2.0625 -2.9309,6.5886 -3.6239,10.21 -0.5973,3.1217 -0.9232,3.7589 -2.0117,3.8809 -1.0488,0.1174 -1.5344,-0.69672 -1.7695,-2.9994 -0.128,-1.2525 -0.4066,-2.3565 -0.62,-2.46 -0.2133,-0.10353 -0.4389,-0.68735 -0.5011,-1.2969 -0.2708,-2.6523 -3.3713,-8.419 -6.9672,-12.942 -1.3985,-1.7591 -6.5167,-5.8699 -7.6191,-6.1236 -0.2507,-0.0577 -1.3664,-0.65294 -2.4845,-1.3133 -1.118,-0.66036 -2.7689,-1.3918 -3.6691,-1.6302 -2.6077,-0.69066 -4.0715,-1.212 -4.3155,-1.5296 -0.1246,-0.16215 -0.6762,-0.35819 -1.2317,-0.43882 -0.5554,-0.0806 -1.4961,-0.41147 -2.0807,-0.74386 -0.5845,-0.33238 -1.2433,-0.5874 -1.4748,-0.56377 -0.7415,0.0757 -7.4777,-2.4707 -8.0654,-3.0478 -0.6204,-0.60926 -3.2143,-1.6996 -3.8767,-1.632 -0.3921,0.04 -3.5351,-1.0149 -9.1512,-3.0752 -2.9465,-1.0809 -6.0457,-2.5515 -7.1674,-3.393 -0.4422,-0.3317 -1.4402,-0.79563 -2.2136,-1.0299 -2.2116,-0.66964 -4.7499,-2.0368 -8.9268,-4.8264 -5.4044,-3.6093 -8.1561,-6.1469 -11.202,-10.297 -3.2326,-4.4046 -3.1918,-4.3299 -4.77,-7.7856 -0.7079,-1.55 -1.4678,-3.1316 -1.6839,-3.515 -0.2161,-0.38351 -0.5295,-1.264 -0.6953,-1.9569 -0.1658,-0.69282 -0.5555,-1.8974 -0.8724,-2.6762 -0.3168,-0.77879 -0.8273,-2.3858 -1.1365,-3.5709 -0.3093,-1.1851 -0.7833,-2.63 -1.0538,-3.2107 -0.8404,-1.8048 -1.6531,-7.8183 -1.5732,-11.684 0.2774,-13.433 4.1435,-23.049 12.886,-32.114 6.3946,-6.6306 11.638,-11.183 22.003,-19.103 6.5353,-4.9936 8.6215,-6.9306 11.916,-11.033 1.8709,-2.3298 3.6584,-4.8682 3.9743,-5.6483 0.3161,-0.78007 0.9046,-3.2067 1.305,-5.3872 0.6025,-3.2807 0.8448,-3.9691 1.4321,-4.0291 0.545,-0.0557 0.8249,0.28583 1.187,1.4688 0.5169,1.6894 1.26,2.1335 2.1114,1.2707 0.5149,-0.52161 3.2293,-5.6118 3.1913,-5.9831 -0.01,-0.0928 0.2888,-1.0678 0.6536,-2.1752 1.9643,-5.9618 2.1524,-11.299 0.6362,-18.143 -0.4511,-2.0362 -0.9386,-4.5129 -1.0813,-5.5122 l -0.2661,-1.8163 1.2771,-0.13041 c 1.1462,-0.11704 1.3766,0.02 2.1653,1.3459 0.4833,0.81248 1.0601,1.4587 1.2872,1.4355 0.5983,-0.0611 0.4765,-4.2571 -0.2845,-9.5571 -0.6012,-4.1866 -0.9389,-5.5524 -2.1972,-8.9931 -0.2503,-0.6842 -0.5781,-1.6462 -0.7253,-2.1381 -0.8869,-2.9652 -3.2873,-7.9507 -6.1719,-12.827 -0.5656,-0.95618 -1.3295,-2.2885 -1.708,-2.9596 -0.8896,-1.5775 -2.218,-3.360499 -5.2475,-7.045599 -3.2311,-3.9304 -3.4526,-4.1843 -5.1904,-5.9223 -0.817,-0.81716 -1.7094,-1.8272 -1.9801,-2.2404 -0.5291,-0.80772 -2.5241,-1.701 -3.5504,-1.5962 -1.2141,0.12397 -1.6492,-0.77077 -1.0629,-2.1728 0.3829,-0.91543 0.4914,-2.5826 0.3687,-5.8677 -0.3015,-8.0695 -0.6939,-12.614 -1.1878,-13.889 -0.2644,-0.68275 -0.9541,-3.4788 -1.5333,-6.215 -0.5792,-2.7362 -1.3269,-5.3975 -1.6638,-5.9136 -0.3963,-0.60693 -0.909,-2.9285 -1.4542,-6.5688 -0.8848,-5.9069 -1.2166,-6.8811 -2.3044,-6.77 z m -101.51,12.578 c -0.2649,0.0271 -0.6872,0.69236 -0.9321,1.4778 -0.2449,0.78544 -0.627,2.0133 -0.8497,2.7368 -0.2228,0.72349 -0.6844,2.9275 -1.0208,4.8973 -0.5889,3.4469 -0.5773,3.9052 0.3242,12.203 0.7414,6.8246 1.0798,8.8346 1.5929,9.6194 0.3565,0.54532 0.9554,2.0088 1.3344,3.2512 0.6626,2.1727 2.2612,4.2739 4.1389,5.442 1.0751,0.66884 1.6931,0.3555 3.7599,-1.8817 1.0956,-1.1859 2.5268,-2.6056 3.18,-3.1591 0.6533,-0.55352 1.8644,-1.6921 2.6922,-2.5217 1.4573,-1.4603 3.9291,-3.2271 11.169,-7.9729 1.9006,-1.246 3.4881,-2.5385 3.5205,-2.8712 0.039,-0.40384 -0.4183,-0.74129 -1.3845,-1.0339 -0.7961,-0.24106 -2.1955,-0.84861 -3.0982,-1.3428 -0.9027,-0.49419 -1.7551,-0.8808 -1.8974,-0.86628 -0.1423,0.0145 -1.3496,-0.7533 -2.685,-1.6961 -1.3355,-0.94279 -3.4419,-2.302 -4.6757,-3.0252 -1.2337,-0.72319 -2.4745,-1.6664 -2.7599,-2.0917 -0.2854,-0.42526 -2.0819,-2.0987 -3.9985,-3.7281 -1.9166,-1.6294 -3.9333,-3.4974 -4.4795,-4.1514 -1.4406,-1.7246 -3.374,-3.3425 -3.9304,-3.2857 z m 96.433,0.62685 c 0.044,-0.007 0.077,-9.8e-4 0.1049,0.0123 0.5115,0.24828 0.8676,3.6796 0.7449,7.1827 -0.052,1.4902 0.1454,5.6793 0.4311,9.3002 0.5755,7.293 0.4767,9.5967 -0.4835,12.078 -0.9562,2.4711 -2.7448,5.0273 -3.5911,5.1137 -0.6882,0.0703 -0.7325,-0.0659 -0.6663,-2.2364 0.1048,-3.4261 -0.5629,-8.8488 -1.2971,-10.56 -0.7954,-1.854 -2.5098,-3.4196 -4.2417,-3.853 -1.0983,-0.27488 -1.5829,-0.20223 -2.9964,0.44422 -0.9272,0.42403 -1.947,1.0531 -2.2542,1.3939 -1.4461,1.6035 -1.8357,-0.7083 -0.694,-4.0885 1.0185,-3.0157 2.5687,-5.1493 5.2212,-7.2043 1.3709,-1.0622 3.2707,-2.5775 4.2198,-3.3574 0.9491,-0.77998 1.9204,-1.4289 2.1561,-1.453 0.2356,-0.024 1.0138,-0.70209 1.7362,-1.5023 0.632,-0.70017 1.304,-1.223 1.61,-1.2705 z m -52.877,54.470999 c 0.1692,-0.0219 0.3414,-0.0386 0.513,-0.0523 0.9161,-0.0736 1.8742,-0.035 2.9805,0.0759 1.6097,0.16136 3.4466,0.55677 4.0872,0.87311 0.6407,0.31633 1.6815,0.75975 2.3129,0.98516 1.7688,0.63154 4.777,3.3631 6.4402,5.8638 2.7903,4.1951 4.7887,11.233 3.6836,12.943 -0.3967,0.61403 -2.21,1.1561 -9.2132,2.7497 -3.8026,0.86526 -10.251,3.1308 -13.837,4.8579 -0.8457,0.40734 -1.8222,0.77369 -2.1756,0.80977 -0.3533,0.0361 -1.8459,0.60543 -3.3152,1.2718 -5.5221,2.5044 -7.7663,3.1506 -8.338,2.4068 -0.1775,-0.23092 -0.5502,-3.0549 -0.8251,-6.2758 -0.6078,-7.1189 -0.2062,-10.903 1.5247,-14.293 1.9446,-3.809 3.0651,-5.0364 6.915,-7.6538 4.3776,-2.9759 6.7085,-4.2345 9.2472,-4.5621 z m 24,41.183 c 2.8046,-0.22505 5.5769,0.58176 8.3006,2.6436 8.4159,6.3706 7.1449,17.479 0.061,26.771 -7.0844,9.2921 -21.127,13.4 -26.704,8.6143 -5.5764,-4.7861 -9.3016,-12.431 -0.3137,-24.06 6.1794,-7.9947 12.486,-13.473 18.656,-13.968 z m -74.722,137.08 c -0.4903,0.0759 -1.0044,0.21272 -1.5047,0.38408 -0.9171,0.31415 -3.1415,0.83155 -4.9395,1.1611 -1.8308,0.33556 -3.7836,0.9263 -4.4374,1.3403 -0.642,0.40657 -1.3243,0.7574 -1.522,0.77761 -0.9186,0.0937 -12.589,8.4303 -13.305,9.5045 -0.088,0.1319 -0.7737,0.72758 -1.5244,1.3194 -0.7507,0.59178 -1.8375,1.6572 -2.4199,2.3671 -1.1709,1.4275 -3.5787,5.6866 -3.5227,6.2358 0.02,0.1922 -0.4128,1.354 -0.9685,2.5876 -1.9641,4.3593 -2.2762,12.695 -0.663,17.88 0.2191,0.7043 0.5273,1.6572 0.806,2.5908 0.4707,1.1664 0.9711,2.3763 1.2166,3.1134 0.9551,2.8675 2.2886,14.951 1.724,15.644 -0.3837,0.47108 -0.096,3.8993 0.3791,4.5009 0.3611,0.45777 1.9019,0.96915 2.7425,0.90669 0.302,-0.0223 1.1724,-0.43446 1.9347,-0.91191 2.5813,-1.6165 4.0303,-2.8512 6.3165,-5.392 2.5918,-2.8803 4.1353,-5.4669 4.436,-7.4467 0.1012,-0.66681 -0.02,-4.2204 -0.2612,-8.2 l -0.053,-0.40935 c -0.8269,-6.2006 -0.8255,-8.8407 0.014,-11.373 0.4575,-1.3805 0.8044,-2.7288 0.7773,-2.9944 -0.027,-0.2656 0.069,-0.55004 0.212,-0.6323 0.1437,-0.0823 0.665,-0.89552 1.1528,-1.7999 0.4877,-0.90438 1.6662,-2.3634 2.6176,-3.2514 2.116,-1.9752 7.3375,-5.2017 11.186,-6.9031 4.5467,-2.0103 4.2474,-1.0207 3.4425,-11.309 -0.383,-4.8952 -0.8581,-9.0736 -1.0516,-9.2829 -0.3606,-0.39008 -1.2538,-0.5463 -2.3048,-0.45597 -0.1577,0.0135 -0.3155,0.0236 -0.479,0.0489 z m 56.572,126.71 c -0.2052,0.0286 -0.3664,0.0793 -0.457,0.15038 -0.5646,0.44232 -1.1512,2.5946 -1.2915,4.7291 -0.058,0.87433 -0.5008,1.8614 -1.2204,2.717 -0.6211,0.73842 -1.1009,1.5947 -1.0727,1.9069 0.1462,1.6193 -3.8702,7.2959 -7.6123,10.755 -5.7059,5.2746 -9.3168,10.049 -8.2518,10.924 0.6023,0.49521 8.7862,0.4257 11.983,-0.10597 1.3958,-0.23211 3.7544,-0.69554 5.2409,-1.0305 6.2805,-1.4159 10.548,-3.0197 13.106,-4.91 3.5998,-2.6598 5.5294,-4.5592 7.0237,-6.9275 2.5476,-4.0373 2.854,-5 2.559,-7.8888 -0.2365,-2.3164 -0.3808,-2.6932 -1.5113,-3.8553 -1.0772,-1.1073 -2.0492,-1.6765 -5.8684,-3.4219 -3.737,-1.7077 -10.644,-3.3195 -12.628,-3.0429 z"
     id="path3103-0-0" />
  <path
     inkscape:connector-curvature="0"
     d="m 317.65442,27.467421 c -0.1068,0.0127 -0.2146,0.0552 -0.3202,0.13639 -0.1938,0.14898 -0.7929,1.0868 -1.33,2.0945 -2.014,3.7787 -3.5169,5.2691 -6.8132,6.7331 -1.9753,0.87727 -6.743,2.5074 -8.996,3.0731 -1.234,0.30986 -2.5713,0.78412 -2.9688,1.0521 -0.3975,0.26794 -2.0942,1.1016 -3.7748,1.8487 -4.7804,2.1251 -6.127,3.1516 -10.731,8.1932 -1.6812,1.8409 -2.8179,3.4796 -3.3136,4.7858 -0.4147,1.0927 -0.9725,2.5097 -1.2343,3.1448 -0.9873,2.3948 -1.2397,3.2056 -1.1887,3.7047 0.029,0.2827 -0.3908,1.0209 -0.9261,1.65 -0.9531,1.12 -1.0183,1.1399 -3.1288,0.95317 -3.8046,-0.33658 -7.0594,-0.14661 -10.286,0.58945 -1.7316,0.39496 -4.5192,1.0345 -6.2038,1.417 -1.6846,0.38242 -4.0301,0.97368 -5.2119,1.3156 -3.1437,0.90972 -4.3558,0.92198 -5.8018,0.0509 -1.5336,-0.9239 -5.646,-2.633 -6.2202,-2.5795 -0.2227,0.0209 -1.1846,-0.46171 -2.1372,-1.0722 -0.9528,-0.61049 -1.9143,-1.0898 -2.1374,-1.0722 -0.2231,0.0177 -1.4724,-0.68439 -2.7748,-1.5602 -1.3025,-0.87579 -2.5215,-1.5745 -2.7052,-1.5558 -1.0368,0.10587 -13.368,-9.6895 -15.372,-12.21 -0.5773,-0.72592 -2.0764,-2.2401 -3.3386,-3.3576 -1.2621,-1.1175 -2.7971,-2.5567 -3.4031,-3.2012 -0.9297,-0.98883 -1.2001,-1.0991 -1.7306,-0.69896 -0.4826,0.36403 -0.5847,0.93198 -0.4408,2.4531 0.188,1.99 0.01,2.9958 -1.1772,6.5264 -0.3529,1.05 -0.9752,2.9339 -1.3815,4.1852 -0.4064,1.2513 -0.9328,2.5494 -1.1688,2.8846 -0.236,0.33516 -0.4502,1.3572 -0.4822,2.273 -0.1069,3.0517 -0.2159,4.2558 -0.4548,5.0239 -0.1884,0.60533 -0.079,7.1006 0.1662,9.7536 0.1798,1.9375 1.6569,7.3961 2.5172,9.3061 1.8718,4.155 4.8333,8.365 7.4276,10.568 2.3669,2.0096 2.4359,2.1014 2.3502,3.6083 -0.048,0.85099 -0.3429,2.007 -0.6482,2.566399 -1.1279,2.0674 -2.0451,4.9558 -2.6763,8.4308 -0.3566,1.9629 -0.7628,3.8758 -0.9139,4.2527 -0.4045,1.009 -0.4661,5.6334 -0.1572,12.114 0.3354,7.0352 0.1663,7.6193 -2.432,8.5671 -1.513,0.55193 -4.9191,1.1956 -8.5698,1.7161 v 0.0229 l -3.1494,0.41373 c -5.427,0.55415 -14.792,0.83582 -20.658,-0.44847 -6.5468,-1.4333 -15.952,-3.8592 -16.661,-4.2902 -0.3243,-0.19725 -1.3633,-0.64638 -2.3151,-1.008 -1.1381,-0.43234 -1.9517,-1.0405 -2.3703,-1.7743 -2.6521,-4.6484 -6.2088,-6.6594 -10.931,-6.1772 -2.2068,0.22534 -2.8541,0.47236 -4.8959,1.8134 -2.6065,1.7118 -5.5727,4.9955 -6.4065,7.1064 -0.6991,1.77 -1.2755,5.5624 -1.1026,7.2561 0.075,0.73029 0.6116,2.0558 1.1889,2.9549 1.5276,2.3791 6.926,6.01 8.6723,5.8317 0.2799,-0.0285 0.8498,0.25855 1.2753,0.64174 0.627,0.56472 0.9011,1.4973 1.4474,4.9218 0.5992,3.757 1.4258,6.7008 2.4694,8.8386 0.9168,1.8779 2.097,4.3392 2.6186,5.4475 2.6171,5.5592 10.72,14.016 14.65,15.291 0.8389,0.27217 2.556,0.83905 3.8154,1.258 2.6342,0.87629 8.426,1.7206 10.41,1.518 0.7428,-0.0759 1.3622,0.0268 1.3827,0.22751 0.021,0.20068 -0.1094,0.37987 -0.2934,0.39866 -0.4834,0.0493 -4.3081,5.0218 -5.3301,6.9274 -0.4778,0.89059 -1.0795,1.9067 -1.3366,2.2565 -0.6726,0.91518 -1.85,4.0786 -2.4136,6.4913 -0.6409,2.7444 -0.7756,8.3445 -0.2159,9.0552 0.1477,0.18771 0.6193,1.0618 1.0509,1.9436 1.1238,2.2956 3.0549,3.6944 5.2888,3.8383 6.0917,0.39226 10.557,-1.5661 22.119,-9.7362 2.4982,-1.7654 5.4323,-3.7602 6.5306,-4.423 l 1.5094,-0.90304 c 1.7564,-0.99914 4.5369,-2.5099 5.9584,-3.1432 1.9397,-0.86416 3.8414,-1.7378 4.2263,-1.9409 0.805,-0.42488 1.7223,-0.70214 2.6238,-0.82097 0.9014,-0.11881 1.7984,-0.0765 2.5608,0.14179 1.3894,0.39783 1.6729,0.6908 2.9478,3.0288 3.407,6.2487 10.153,13.088 16.001,16.225 0.7975,0.42784 2.0698,1.142 2.8238,1.5897 0.754,0.44766 2.3124,1.1844 3.473,1.6272 1.1605,0.44277 2.2687,0.91761 2.4589,1.0624 0.1902,0.14476 -0.2692,0.75581 -1.026,1.3491 -0.7567,0.59326 -1.4699,1.2526 -1.5776,1.4746 -0.1078,0.222 -0.5517,0.44806 -0.9982,0.49365 -0.8002,0.0817 -3.266,1.8392 -5.906,4.2209 -0.7427,0.67003 -1.7392,1.4726 -2.2147,1.7816 -1.0772,0.70021 -3.222,2.9114 -7.1415,7.3543 -1.6712,1.8943 -3.5937,3.96 -4.2776,4.5962 -0.684,0.63612 -1.8217,2.0796 -2.5186,3.2068 -0.6968,1.1272 -1.8031,2.8846 -2.4588,3.9035 -0.6556,1.0189 -1.4709,2.3848 -1.8105,3.0308 -0.8935,1.6997 -2.8896,5.4408 -3.8685,7.2505 -1.2941,2.3926 -2.2121,4.8588 -2.4659,6.5427 0,-0.009 -0.01,-0.0264 -0.014,-0.0217 -0.5739,2.1453 -0.816,3.251 -1.9573,6.4447 -0.01,0.12064 -0.028,0.30362 -0.055,0.478 -0.022,0.14061 -0.049,0.29128 -0.08,0.45752 0.03,-0.16327 0.059,-0.3182 0.08,-0.45752 -0.01,0.0398 -0.026,0.0784 -0.034,0.11869 -0.4264,1.9588 -1.0266,3.8815 -1.338,4.273 -0.3144,0.3954 -1.0993,1.184 -1.9444,1.7194 -0.6675,0.22773 -1.5093,0.38116 -2.5971,0.51866 -2.2612,0.28584 -6.182,1.6067 -8.499,2.8611 -1.2106,0.65536 -4.6402,1.9909 -5.6742,2.204 -0.6778,0.13969 -4.2113,2.0403 -7.1648,3.854 -1.622,0.99601 -3.1419,1.8283 -3.3824,1.8547 -0.2405,0.0264 -0.8196,0.66438 -1.2836,1.4215 -0.614,1.0019 -1.1246,1.4053 -1.8765,1.4821 -0.5682,0.058 -1.7659,0.70572 -2.6647,1.4358 -7.9107,7.9424 -14.066,17.422 -12.217,29.073 0.2547,2.0868 0.9581,4.0433 1.248,6.129 1.5622,4.9572 2.1089,6.3472 2.4005,8.0506 l 0.4535,1.3939 -0.034,0.004 c 1.1642,4.7934 1.9411,9.6064 1.6039,10.517 -0.4505,1.2159 -0.4872,3.7396 -0.1193,7.8586 l 0.3236,3.7346 1.7744,1.4664 c 2.035,1.6893 4.8452,2.5086 6.6374,1.9262 2.1467,-0.69763 5.4473,-3.2038 11.849,-8.9871 5.9106,-5.34 6.5628,-7.4103 5.7433,-18.226 -0.1399,-1.8466 -1.0178,-5.2944 -0.9833,-8.276 0.4169,-3.13 1.7285,-5.9191 4.1023,-8.9105 1.5072,-1.8996 2.9482,-3.2562 4.2867,-4.0556 2.4038,-1.4356 7.4211,-3.8699 8.1568,-3.9553 1.0334,-0.11988 2.3673,1.296 2.5068,2.6591 0.1672,1.6364 1.6517,6.347 2.3021,7.3118 0.2684,0.39824 0.5976,1.4571 0.736,2.356 0.2435,1.5816 0.8042,3.5387 1.5949,5.6902 -0.042,-0.0638 -0.088,-0.13304 -0.1075,-0.15034 0.8102,2.2418 3.3681,8.3832 3.823,9.795 0.5061,1.5706 1.2836,3.3907 1.7272,4.0522 0.4438,0.66142 0.8311,1.4817 0.8649,1.8128 0.089,0.87155 5.8162,13.34 7.8232,17.037 0.9387,1.7292 2.5438,4.4688 3.5712,6.0876 2.453,3.8654 14.139,25.132 15.058,27.405 1.8107,4.4796 2.3651,6.6896 3.0752,12.176 0.8279,6.3949 0.8206,6.5214 -1.1532,10.822 -1.2913,2.8133 -5.9872,9.6791 -6.6667,9.7485 -0.5226,0.0533 -6.5209,7.6774 -6.4657,8.2185 0.023,0.22961 -0.3787,1.1086 -0.8946,1.9579 -0.516,0.8492 -0.925,1.7198 -0.9085,1.9363 0.017,0.2164 -0.3232,0.80136 -0.7546,1.2984 -1.6527,1.904 -0.5899,8.1549 1.7033,10.023 0.8007,0.65267 1.4091,0.70347 5.8109,0.48978 7.2317,-0.35135 15.066,-1.4528 17.412,-2.4577 3.6582,-1.5673 6.5411,-2.7421 7.6112,-3.093 0.5886,-0.19342 1.3817,-0.60477 1.7499,-0.9161 0.3682,-0.3117 0.8794,-0.58526 1.1473,-0.61262 0.2678,-0.0276 2.5468,-1.3267 5.0636,-2.879 5.1512,-3.1776 7.6792,-5.7353 8.9264,-9.0574 0.3959,-1.0544 0.8814,-2.1823 1.0806,-2.5069 0.4704,-0.76615 0.8758,-4.7624 0.5275,-5.2156 -0.5528,-0.71902 0.8169,-0.84549 2.4197,-0.22423 1.788,0.69351 3.8322,1.8881 6.5079,3.8175 0.9254,0.6673 1.8347,1.2068 2.0224,1.1876 0.1876,-0.0191 1.8057,0.89405 3.5946,2.0295 1.7889,1.13545 3.4464,2.0446 3.6859,2.0202 0.2395,-0.0246 1.2146,0.42294 2.1645,1.0003 0.95,0.57732 2.2386,1.2507 2.8716,1.4927 0.6331,0.24227 2.2771,0.90646 3.6539,1.482 1.3769,0.57553 2.9275,1.1366 3.4448,1.2383 0.5173,0.10164 1.3797,0.42269 1.9164,0.71455 0.5368,0.29153 1.999,0.79965 3.2496,1.1314 1.2506,0.33181 3.9058,1.1504 5.9004,1.8171 4.3916,1.4681 7.6632,2.1617 11.117,2.356 1.4277,0.08 3.5254,0.20651 4.6609,0.28453 2.6864,0.18522 8.2457,-0.38646 9.8624,-1.0185 0.698,-0.27289 2.9727,-0.74429 5.0561,-1.0347 3.4375,-0.47961 7.1582,-1.3992 7.8669,-1.944 0.1521,-0.11697 0.5143,0.0257 0.8036,0.30967 0.4332,0.42545 0.4325,1.0427 -0.012,3.4924 -0.2967,1.6357 -0.413,3.212 -0.2641,3.5066 0.1489,0.29432 0.4296,0.5207 0.6273,0.50052 0.5962,-0.0609 2.2526,-1.0775 3.3283,-2.0451 1.0005,-0.89982 5.9329,-3.9274 7.9803,-4.8936 1.3871,-0.65454 5.1715,-2.6251 9.2,-4.7992 1.7838,-0.96299 3.454,-1.7699 3.7223,-1.7973 0.2684,-0.0275 1.8156,-0.66744 3.4381,-1.4226 1.6225,-0.75544 5.1057,-2.2876 7.7291,-3.4047 5.4538,-2.3221 7.7635,-3.4353 10.72,-5.1502 1.1487,-0.66639 3.8216,-2.1129 5.9401,-3.2105 2.1185,-1.0976 5.6004,-3.0562 7.7478,-4.3514 2.1473,-1.2948 4.008,-2.3564 4.1364,-2.3695 0.1283,-0.0132 0.9612,-0.67355 1.8445,-1.4558 0.8834,-0.78222 2.1328,-1.7589 2.7738,-2.1728 1.8262,-1.1791 7.8384,-6.1061 9.3138,-7.6337 4.9866,-5.163 10.206,-11.698 11.106,-13.889 0.4562,-1.11 1.458,-2.9278 2.2247,-4.0524 0.7668,-1.1246 1.3922,-2.1629 1.3786,-2.2954 -0.014,-0.13252 0.3954,-1.0199 0.9164,-1.9716 2.4487,-4.4728 3.9867,-9.5345 4.8472,-15.946 0.1655,-1.2336 0.4054,-3.0002 0.5324,-3.9257 0.4537,-3.3072 0.5458,-4.7356 0.5985,-9.9353 0.049,-4.8212 -0.046,-5.6872 -1.0409,-10.194 -0.9718,-4.404 -2.4197,-8.6213 -4.1964,-12.211 -0.3344,-0.6756 -0.8836,-1.9083 -1.2238,-2.7325 -0.3402,-0.82415 -0.9445,-1.7426 -1.3489,-2.0399 -0.4045,-0.29722 -0.7598,-0.78188 -0.7904,-1.083 -0.03,-0.30117 -0.5216,-1.0449 -1.0904,-1.6515 -0.569,-0.60657 -1.0436,-1.1932 -1.0544,-1.298 -0.085,-0.83251 -4.0582,-4.7243 -9.2184,-9.0367 -6.1512,-5.1407 -12.435,-8.0955 -18.397,-8.6526 -1.1259,-0.10525 -2.392,-0.31781 -2.8123,-0.46175 -2.5924,-0.88789 -16.471,0.15884 -20.306,1.5319 -1.0759,0.38521 -3.1596,1.0247 -4.6253,1.4171 -2.6438,0.70768 -6.4925,2.3501 -8.1487,3.4706 -1.0522,0.7118 -2.1929,1.5968 -5.295,4.1124 -1.3108,1.0631 -2.667,2.1284 -3.0072,2.3695 -0.5547,0.3932 -3.3339,5.0488 -4.9884,8.3557 -0.3474,0.69452 -0.8039,1.2804 -1.0191,1.3023 -0.6562,0.067 -1.841,-0.99009 -1.914,-1.7057 -0.077,-0.74945 -1.0988,-2.3605 -2.5267,-3.9821 -0.5161,-0.58611 -0.9576,-1.2534 -0.9805,-1.4784 -0.023,-0.22496 -1.0932,-1.3635 -2.3776,-2.5225 -1.2843,-1.1589 -2.7185,-2.611 -3.1877,-3.2347 -0.4692,-0.62376 -1.8274,-1.7376 -3.0184,-2.4801 -1.1912,-0.74253 -2.8315,-1.8092 -3.6399,-2.359 -2.1381,-1.4542 -4.5836,-2.8272 -4.9513,-2.7897 -0.1753,0.0179 -0.8179,-0.28978 -1.4293,-0.68362 -0.6114,-0.39384 -1.7593,-0.98177 -2.5529,-1.3063 -1.6392,-0.67022 -6.4161,-2.5977 -12.065,-4.8632 -2.1145,-0.84809 -4.2836,-1.7814 -4.8197,-2.0657 -0.536,-0.28436 -2.2633,-0.95133 -3.8387,-1.4861 -4.9825,-1.6912 -12.012,-4.4967 -13.837,-5.5233 -0.9681,-0.54446 -2.8885,-1.6248 -4.266,-2.3988 -2.9377,-1.6505 -9.681,-6.8074 -11.373,-8.7014 -0.6484,-0.72565 -2.7549,-3.8059 -4.6733,-6.8392 -3.1956,-5.0528 -3.6234,-5.949 -5.1777,-10.763 -1.486,-4.6023 -1.7682,-5.9555 -2.2777,-10.909 -0.6186,-6.0234 -0.5441,-7.1793 0.9405,-13.922 1.0021,-4.5513 2.1152,-7.422 4.2019,-10.868 0.9575,-1.5815 1.8821,-3.2272 2.0578,-3.6552 0.5226,-1.2724 2.5756,-3.8924 3.0884,-3.9447 0.2616,-0.0267 1.421,-1.0442 2.5809,-2.2568 2.1145,-2.2108 7.5413,-6.8881 8.0479,-6.9399 0.1487,-0.0152 0.6084,-0.48184 1.0243,-1.0263 0.4161,-0.54448 2.6345,-2.1918 4.9366,-3.6726 4.6168,-2.9696 5.7401,-3.7204 9.5296,-6.4229 3.2597,-2.3245 5.0731,-3.8877 7.7441,-6.6438 1.1681,-1.2053 2.3966,-2.1728 2.7305,-2.1454 0.334,0.0275 0.9457,0.58106 1.3587,1.2324 0.413,0.65135 1.0245,1.4096 1.3585,1.6817 0.5418,0.44135 0.6883,0.41898 1.2883,-0.24677 0.3699,-0.41049 0.6449,-1.0183 0.6119,-1.3414 -0.1521,-1.4894 1.9365,-5.9778 5.2935,-11.348 2.2905,-3.6642 5.0909,-11.284 5.7953,-15.801 0.7873,-5.0486 0.8132,-5.1126 2.518,-5.0156 0.9677,0.055 1.5134,-0.0957 1.7715,-0.48044 0.2511,-0.37428 0.1086,-3.8748 -0.432,-10.775 -1.0508,-13.411 -1.3639,-15.725 -2.6855,-19.981 -0.6103,-1.9655 -1.3198,-4.3409 -1.5871,-5.2763 -0.2674,-0.93538 -0.6087,-1.8494 -0.7492,-2.032 -0.1403,-0.18266 -0.6816,-1.4127 -1.2009,-2.7348 -2.2035,-5.6104 -5.7184,-12.068 -8.1232,-14.898 -0.7141,-0.840309 -1.3153,-1.710499 -1.3384,-1.937299 -0.024,-0.22675 -0.6502,-1.0869 -1.3933,-1.9086 -0.7428,-0.82173 -2.1009,-2.3409 -3.018,-3.3788 -0.9171,-1.038 -2.5678,-2.7796 -3.6554,-3.8668 -2.3835,-2.3824 -4.0508,-4.803 -4.178,-6.0487 -0.051,-0.50429 -0.2797,-1.1884 -0.5005,-1.5159 -0.2207,-0.32749 -0.7931,-3.4532 -1.2735,-6.9444 -0.4804,-3.4912 -1.0695,-6.8178 -1.3089,-7.4017 -0.2394,-0.58391 -0.6381,-2.0364 -0.8826,-3.2282 -0.3996,-1.9478 -1.3401,-5.1855 -3.1661,-10.922 -1.7161,-5.3911 -1.7454,-15.498 -0.065,-20.94 0.585,-1.8938 -0.4217,-4.7664 -1.4537,-4.6447 v 1.1e-4 z m -6.4949,11.655 c 1.0876,-0.11106 1.4196,0.86309 2.3043,6.77 0.5451,3.6403 1.0579,5.9618 1.4541,6.5688 0.337,0.51615 1.0846,3.1774 1.6639,5.9137 0.5792,2.7362 1.2689,5.5323 1.5333,6.215 0.4938,1.2751 0.8864,5.8198 1.1878,13.889 0.1227,3.2851 0.015,4.9523 -0.3687,5.8677 -0.5864,1.402 -0.1512,2.2968 1.063,2.1728 1.0261,-0.1048 3.0213,0.78847 3.5504,1.5962 0.2707,0.41322 1.163,1.4233 1.98,2.2404 1.7377,1.7379 1.9594,1.9919 5.1904,5.9223 3.0295,3.685 4.3579,5.468099 5.2476,7.045599 0.3784,0.6711 1.1422,2.0034 1.7078,2.9596 2.8846,4.8766 5.285,9.8621 6.172,12.827 0.1472,0.49194 0.4751,1.4539 0.7253,2.1381 1.2582,3.4408 1.5961,4.8066 2.1972,8.9931 0.7609,5.3001 0.8828,9.496 0.2845,9.5571 -0.2272,0.0231 -0.804,-0.62305 -1.2872,-1.4355 -0.7886,-1.3259 -1.019,-1.4629 -2.1653,-1.3459 l -1.2772,0.13041 0.2661,1.8163 c 0.1428,0.99935 0.6303,3.4761 1.0814,5.5123 1.5162,6.8433 1.3281,12.181 -0.6362,18.143 -0.3649,1.1074 -0.663,2.0824 -0.6535,2.1752 0.038,0.37125 -2.6766,5.4615 -3.1913,5.9831 -0.8515,0.86275 -1.5945,0.4187 -2.1116,-1.2707 -0.362,-1.183 -0.6419,-1.5245 -1.1868,-1.4688 -0.5873,0.06 -0.8298,0.74835 -1.4322,4.0291 -0.4004,2.1805 -0.9889,4.6072 -1.305,5.3872 -0.316,0.78007 -2.1035,3.3185 -3.9743,5.6483 -3.2948,4.1028 -5.3808,6.0398 -11.916,11.033 -10.365,7.9202 -15.608,12.473 -22.003,19.103 -8.7427,9.0651 -12.609,18.681 -12.886,32.114 -0.079,3.8656 0.7328,9.8791 1.5732,11.684 0.2705,0.58075 0.7445,2.0256 1.0538,3.2107 0.3092,1.1851 0.8197,2.7922 1.1365,3.571 0.3169,0.77878 0.7066,1.9834 0.8724,2.6762 0.1659,0.69282 0.4791,1.5734 0.6953,1.9569 0.2161,0.38351 0.976,1.9651 1.6839,3.5151 1.5782,3.4558 1.5375,3.381 4.77,7.7856 3.0461,4.1505 5.798,6.6881 11.202,10.297 4.1769,2.7896 6.7153,4.1568 8.9268,4.8264 0.7736,0.23423 1.7715,0.69816 2.2137,1.0298 1.1217,0.84147 4.2209,2.3121 7.1673,3.393 5.6161,2.0603 8.7592,3.1152 9.1514,3.0752 0.6623,-0.0676 3.2562,1.0227 3.8766,1.632 0.5877,0.5771 7.3239,3.1235 8.0655,3.0478 0.2313,-0.0236 0.8902,0.23137 1.4747,0.56376 0.5847,0.33239 1.5254,0.66323 2.0808,0.74386 0.5555,0.0806 1.1069,0.27667 1.2315,0.43881 0.2442,0.31756 1.7079,0.83893 4.3155,1.5296 0.9003,0.23839 2.5512,0.96978 3.6692,1.6302 1.118,0.66034 2.2337,1.2555 2.4845,1.3133 1.1024,0.25371 6.2206,4.3645 7.619,6.1236 3.5959,4.523 6.6964,10.29 6.9672,12.942 0.062,0.60952 0.2879,1.1933 0.5012,1.2969 0.2133,0.10354 0.492,1.2075 0.6199,2.46 0.2351,2.3026 0.7209,3.1167 1.7695,2.9994 1.0887,-0.12185 1.4144,-0.75919 2.0118,-3.8809 0.6929,-3.6211 2.3027,-8.1472 3.6238,-10.21 0.5011,-0.78212 0.8885,-1.568 0.8701,-1.748 -0.042,-0.41504 4.3337,-5.9039 4.7391,-5.9453 0.166,-0.017 0.7656,-0.46161 1.3392,-0.98935 0.9601,-0.88333 5.4398,-3.757 7.3751,-4.7281 0.4517,-0.22663 2.4849,-0.83306 4.5058,-1.3473 2.9722,-0.75628 4.7262,-0.96971 9.1824,-1.1334 8.849,-0.32513 12.802,0.13122 18.692,2.1816 0.8642,0.30075 1.7268,0.53804 1.9196,0.51837 0.1927,-0.0197 1.0564,0.43519 1.9125,1.0145 0.8561,0.57937 2.3177,1.2815 3.2584,1.5569 3.1103,0.91055 3.527,1.1227 7.0926,3.6771 4.8006,3.4392 7.4982,6.7834 11.859,14.701 2.0879,3.7907 4.1012,11.046 4.2704,15.418 0.1666,4.3053 0.1106,9.0608 -0.1074,9.7815 -0.095,0.31386 -0.2915,1.6613 -0.4431,2.9948 -0.4655,4.0965 -0.9819,6.7707 -1.4668,7.639 -0.2549,0.45643 -0.4419,1.0874 -0.4099,1.4014 0.079,0.77066 -2.1388,6.359 -3.1803,8.0098 -0.4602,0.72948 -1.3324,2.2282 -1.9296,3.331 -1.8363,3.3908 -3.6404,6.2776 -4.7164,7.5214 -0.5652,0.65329 -1.016,1.3347 -0.9971,1.519 0.064,0.62534 -1.6432,2.8128 -5.5033,7.0372 -4.0119,4.3904 -6.4394,6.5177 -11.051,9.6892 -1.5082,1.0372 -3.2594,2.3123 -3.8924,2.8401 -0.6329,0.52774 -1.7453,1.1949 -2.4765,1.4742 -0.7311,0.27919 -1.5132,0.77352 -1.7313,1.0985 -0.2181,0.32497 -0.75,0.62963 -1.187,0.67424 -0.4371,0.0446 -0.9369,0.22162 -1.1113,0.40149 -0.3453,0.35688 -2.621,1.502 -7.0034,3.515 -10.122,4.6491 -15.222,7.1041 -15.804,7.605 -0.3677,0.31665 -1.0015,0.60921 -1.4084,0.65076 -0.4068,0.0416 -2.085,0.72673 -3.7275,1.5213 -1.6426,0.79433 -3.3833,1.6208 -3.8683,1.8352 -0.4851,0.2145 -1.9871,0.94149 -3.3373,1.6197 -4.6251,2.3224 -5.0982,2.4282 -5.2315,1.1218 -0.1589,-1.5551 -1.9299,-1.63 -5.3691,-0.22374 -0.7786,0.31826 -2.0581,0.78688 -2.8434,1.0392 -0.7854,0.25238 -2.0663,0.70742 -2.8459,1.0165 -1.7497,0.69328 -5.6945,1.8872 -10.192,3.0916 -6.1496,1.6469 -8.7083,1.8557 -14.262,1.1452 -1.3321,-0.17041 -3.6862,-0.44342 -5.2238,-0.60727 -6.5646,-0.70031 -7.9523,-0.93373 -11.31,-1.8754 -3.4238,-0.96022 -5.3677,-1.6444 -13.519,-4.7723 -7.1619,-2.7484 -8.7723,-3.4318 -10.14,-4.2992 -2.9091,-1.845 -5.4451,-3.2439 -7.107,-3.9292 -0.9527,-0.3932 -2.5263,-1.1803 -3.4971,-1.7514 -0.9709,-0.5711 -2.5721,-1.4825 -3.5707,-2.0204 -2.5921,-1.3961 -10.644,-7.1985 -10.696,-7.7106 -0.055,-0.53724 3.3122,-2.3776 4.5832,-2.5074 1.0698,-0.10923 9.0749,-4.4007 14.922,-7.9989 2.1529,-1.3249 4.0713,-2.4205 4.2673,-2.4406 0.1961,-0.0202 1.0206,-0.43072 1.8321,-0.90143 0.8116,-0.47071 2.1054,-1.1139 2.8837,-1.4351 0.7784,-0.32119 1.9949,-1.043 2.6941,-1.6001 0.6992,-0.55716 1.536,-1.0325 1.8614,-1.0657 0.3254,-0.0333 1.9456,-0.89116 3.5967,-1.8996 6.8373,-4.1763 9.4729,-5.6958 10.774,-6.1928 0.7556,-0.28852 1.649,-0.88878 1.9829,-1.3432 0.5544,-0.75442 0.551,-0.90473 -0.04,-1.7472 -0.3834,-0.54663 -1.0197,-0.9329 -1.5587,-0.93539 -4.2923,-0.0198 -5.0587,-0.32589 -3.1597,-1.2674 0.5308,-0.26314 2.5245,-1.455 4.4301,-2.653 1.9055,-1.198 3.6864,-2.1969 3.9438,-2.2232 0.7171,-0.0695 3.6827,-2.0729 4.8189,-3.2458 0.5571,-0.57509 1.2659,-1.0626 1.5819,-1.0948 0.3162,-0.0322 1.1662,-0.47995 1.881,-0.98704 2.3258,-1.6499 6.4726,-4.2855 6.8057,-4.3243 0.8691,-0.10127 6.7309,-4.0484 7.3633,-4.9573 0.4345,-0.62441 1.0981,-1.0685 1.6708,-1.1269 0.5228,-0.0534 1.4537,-0.37973 2.0583,-0.71714 2.4438,-1.3639 3.0841,-1.6514 3.7876,-1.7233 0.4045,-0.0413 1.7118,-0.51137 2.9131,-1.0348 3.1313,-1.3646 6.946,-2.5527 8.7193,-2.7338 0.8412,-0.0855 1.6039,-0.32969 1.7075,-0.54304 0.1147,-0.23647 2.8785,-0.66262 7.0782,-1.0914 4.1996,-0.42881 6.9925,-0.57005 7.1527,-0.36165 0.1445,0.18803 0.7966,0.28737 1.4398,0.22169 3.1655,-0.32323 8.378,2.453 11.952,6.361 2.1774,2.3804 3.9345,3.8153 4.5883,3.7485 1.7057,-0.17418 -1.2455,-5.562 -5.1693,-9.4386 -2.788,-2.7546 -4.8624,-4.105 -8.2938,-5.398 -4.9846,-1.8781 -6.4484,-2.0415 -13.427,-1.5094 -3.8048,0.29004 -7.643,0.79146 -9.4605,1.231 -3.3111,0.80052 -9.4086,2.7198 -10.537,3.3227 -0.3846,0.20543 -1.3364,0.6329 -2.1148,0.95334 -0.7785,0.32042 -1.6461,0.76049 -1.9289,0.9689 -0.2829,0.20841 -0.9071,0.5953 -1.3863,0.86744 -6.4796,3.68 -17.01,10.154 -17.726,10.889 -0.6656,0.68309 -4.2021,3.3884 -5.6105,4.2944 -0.5709,0.36723 -1.4583,1.0927 -1.9778,1.6191 -0.5194,0.52642 -1.2193,0.98422 -1.5547,1.0229 -0.3353,0.0387 -0.9919,0.4421 -1.4534,0.88581 -0.4617,0.44371 -1.0574,0.82946 -1.3293,0.86163 -0.2718,0.0323 -1.4548,0.6347 -2.6284,1.3399 -1.1737,0.70519 -2.7731,1.5706 -3.5487,1.9178 -0.7757,0.34728 -1.5637,0.75552 -1.75,0.91607 -0.75,0.64599 -3.7098,1.104 -5.9894,0.92262 -4.0365,-0.32116 -4.6065,-0.21295 -4.6219,0.88673 -0.019,1.3414 1.0533,2.2638 4.1293,3.5419 1.4673,0.6096 2.7518,1.2888 2.85,1.5064 0.2025,0.44944 -6.3243,5.0536 -13.542,9.5518 -1.305,0.81329 -3.3959,2.1283 -4.6325,2.9272 -1.2365,0.79884 -3.2148,2.0817 -4.3987,2.8457 -2.3023,1.4856 -4.5245,2.1871 -5.4254,1.7062 -0.378,-0.20173 -0.755,-1.4356 -1.1898,-3.8651 -0.3505,-1.9587 -0.8003,-4.1168 -0.9977,-4.8064 -0.9337,-3.2626 -1.6215,-5.218 -1.9332,-5.5059 -0.1879,-0.17345 -0.371,-0.58599 -0.4057,-0.92641 -0.083,-0.81721 -3.1712,-5.9095 -3.5605,-5.8698 -0.3665,0.0375 0.7077,9.187 1.146,9.7572 0.17,0.22125 0.8029,3.2736 1.3954,6.7821 1.288,7.6278 1.2305,7.8968 -1.7348,9.3024 -2.5851,1.2254 -8.2549,2.898 -10.737,3.1703 -2.0358,0.22297 -10.198,-0.77602 -10.781,-1.3188 -0.2917,-0.27164 -0.7621,-1.8803 -2.4091,-8.3608 -0.3248,-1.2781 -0.8354,-2.6362 -1.1378,-3.0178 -0.3023,-0.38158 -0.8464,-1.4921 -1.2084,-2.469 -0.776,-2.0942 -2.7303,-6.0466 -3.4705,-7.0196 -0.2863,-0.37633 -0.991,-1.6317 -1.5752,-2.7888 -0.5841,-1.157 -1.4566,-2.7894 -1.9374,-3.6274 -0.4807,-0.83805 -1.2677,-2.2866 -1.7449,-3.2093 -0.477,-0.9227 -2.5355,-4.3004 -4.5686,-7.5066 -5.5974,-8.8271 -13.235,-23.225 -15.738,-29.663 -0.3032,-0.78017 -0.9883,-2.5353 -1.5273,-3.8998 -0.5391,-1.3644 -1.5411,-4.3316 -2.2172,-6.5945 -0.6763,-2.263 -1.5282,-4.9136 -1.892,-5.8904 -0.3638,-0.97678 -0.8269,-2.5057 -1.0382,-3.3966 -0.2111,-0.89095 -0.7372,-2.7453 -1.1696,-4.1206 -1.1304,-3.5951 -2.5672,-10.657 -2.897,-14.268 -0.6692,-7.3254 -0.1721,-18.461 0.9456,-21.205 0.1498,-0.36743 0.2311,-1.1224 0.1745,-1.677 -0.057,-0.55464 0.1094,-1.5228 0.3673,-2.1575 0.258,-0.63469 0.6765,-2.0877 0.9262,-3.2285 1.2019,-5.4901 3.2079,-11.326 5.1379,-14.904 0.6366,-1.1803 1.4711,-2.9446 1.8463,-3.9216 0.3751,-0.97698 1.5463,-3.0758 2.601,-4.6554 2.1663,-3.2447 13.456,-17.217 13.953,-17.267 0.3305,-0.0337 2.5148,-1.7094 6.4531,-4.9566 1.2182,-1.0044 2.4247,-1.8491 2.6775,-1.8749 0.5968,-0.061 5.1778,-2.4661 8.3658,-4.3914 1.376,-0.83095 2.7296,-1.5346 3.0089,-1.5631 0.6493,-0.0663 1.591,-1.3443 1.5183,-2.0562 -0.073,-0.7168 -1.6056,-1.8387 -2.7895,-2.0426 -8.4389,-1.453 -12.736,-2.69 -15.728,-4.5236 -1.0998,-0.67402 -2.7973,-1.6908 -3.7673,-2.2538 -2.1623,-1.255 -6.5407,-4.816 -7.313,-5.9475 -3.5638,-5.2209 -4.8913,-7.7476 -5.8939,-11.231 -0.8486,-2.949 -2.0447,-4.7687 -3.08,-4.663 -0.3995,0.0408 -1.3793,0.53648 -2.1681,1.1086 -1.376,0.99787 -4.7561,2.7048 -10.41,5.2454 -1.9447,0.87383 -3.9367,1.8538 -5.8177,2.8293 v 0.0114 l -4.3055,2.1794 c -1.477,0.96039 -2.8262,1.9173 -2.9976,2.1265 -0.1713,0.20919 -0.5295,0.39971 -0.7974,0.42708 -0.268,0.0274 -0.8963,0.38187 -1.3944,0.7876 -1.3935,1.1352 -5.0668,3.1568 -5.4216,2.9847 -0.1741,-0.0844 0.085,-0.74912 0.5752,-1.4759 0.4903,-0.72681 1.7552,-2.6023 2.8118,-4.17 1.0567,-1.5677 2.4697,-3.5963 3.1351,-4.5026 0.6654,-0.90627 1.1925,-1.8367 1.1716,-2.0668 -0.02,-0.23027 1.3709,-2.0106 3.0974,-3.9687 l 3.4942,-4.0323 c 0.059,-0.0567 0.127,-0.13434 0.1776,-0.17944 0.7434,-0.6631 2.4051,-2.3976 3.685,-3.8559 2.8867,-3.2891 4.5993,-4.8685 7.9411,-7.3092 2.735,-1.9975 7.0218,-4.1851 8.4755,-4.3335 1.0917,-0.11147 2.6558,1.2384 4.1316,3.5647 1.2811,2.0194 2.0544,2.1604 2.7259,0.51668 0.6891,-1.687 -0.2046,-5.0554 -2.1555,-8.1332 -0.9966,-1.5722 -1.9043,-3.5411 -2.1723,-4.6865 -0.2536,-1.0844 -0.6516,-2.1636 -0.89,-2.3978 -0.3234,-0.31757 -0.6473,-0.44183 -0.9612,-0.38578 -0.523,0.0934 -1.0094,0.68829 -1.356,1.7285 -0.2972,0.89219 -1.1097,2.344 -1.8135,3.227 -2.7345,3.4306 -8.1299,8.0198 -9.6045,8.1703 -0.3292,0.0336 -0.74,0.23125 -0.9115,0.43873 -0.2214,0.26786 -4.6144,2.5889 -7.9966,4.2846 -1.0613,0.38922 -2.5246,1.0569 -4.4349,1.9276 -6.3826,2.9091 -12.662,3.6749 -17.926,3.1784 -1.4654,-0.13821 -3.7429,-0.2543 -5.0612,-0.25519 -1.3181,-7.3e-4 -3.0827,-0.22102 -3.921,-0.48681 -0.8383,-0.26578 -1.9771,-0.54903 -2.5299,-0.62886 -1.1396,-0.16459 -7.262,-4.6237 -9.5597,-6.9624 -0.8371,-0.85209 -1.846,-2.0974 -2.2412,-2.7668 -0.3953,-0.66938 -1.02,-1.684 -1.3939,-2.2542 -2.7503,-4.195 -4.9322,-7.8601 -5.4687,-9.2121 -0.348,-0.877 -0.8126,-1.9515 -1.0395,-2.3941 -0.2269,-0.44264 -0.5139,-1.7613 -0.6322,-2.9196 -0.1183,-1.1583 -0.5439,-2.9108 -0.9514,-3.9009 -0.9438,-2.2931 -0.7028,-3.2802 1.2408,-5.0004 0.8144,-0.7209 2.0096,-2.1825 2.6517,-3.2549 0.6422,-1.0724 1.2978,-1.9645 1.457,-1.9807 0.4742,-0.0484 11.406,2.5653 13.475,3.2213 1.8248,0.57849 3.2763,0.87972 5.2751,1.109 1.0259,0.11769 3.8855,0.50023 6.3533,0.83759 5.1521,0.7043 12.788,-0.036 18.251,-1.011 l 3.4436,-0.91619 c 7.1882,-1.3512 10.532,-2.212 12.124,-3.1276 0.383,-0.22029 1.8082,-0.88693 3.1676,-1.4756 3.3948,-1.4702 4.0014,-1.8516 5.3829,-3.4762 1.0998,-1.2932 1.4424,-2.2507 2.2512,-6.1636 0.4721,-2.2842 -0.194,-7.0139 -1.2585,-8.9392 -1.4588,-2.6389 -4.6021,-4.9532 -6.2665,-4.6141 -0.337,0.0686 -0.829,0.11948 -1.0822,0.122 -0.7992,0.008 -0.7102,-2.0795 0.1942,-4.7553 1.4827,-4.3862 2.3283,-6.6134 2.5987,-6.8213 0.1428,-0.10973 0.3247,-0.65766 0.4058,-1.216699 0.2303,-1.5867 4.7772,-8.1897 6.9727,-10.137 1.0887,-0.96558 2.9987,-2.7157 4.2473,-3.8787 1.2485,-1.163 2.6588,-2.2831 3.145,-2.4872 0.4861,-0.20409 1.11,-0.59366 1.385,-0.87883 1.459,-1.5126 5.0762,-3.3866 10.726,-5.5426 9.6117,-3.6683 21.877,-6.1098 29.044,-5.777 7.1431,0.33165 6.841,0.39992 7.9363,-1.4901 0.5328,-0.91957 0.9455,-1.7973 0.93,-1.95 -0.016,-0.1527 0.4314,-1.6229 0.9911,-3.2697 0.5597,-1.6468 1.2517,-3.6835 1.5314,-4.5232 0.6031,-1.8103 6.2888,-8.726 8.528,-10.365 2.488,-1.8209 6.5606,-4.2329 8.1367,-4.8289 0.8029,-0.30365 3.4019,-1.6472 5.7786,-2.9866 2.3768,-1.3394 4.6217,-2.4652 4.987,-2.5025 v 4e-5 z m -101.5,12.59 c 0.5565,-0.0568 2.4897,1.561 3.9304,3.2857 0.5463,0.65396 2.5629,2.522 4.4795,4.1514 1.9166,1.6294 3.7132,3.3028 3.9986,3.7281 0.2853,0.42527 1.5261,1.3685 2.7599,2.0917 1.2337,0.7232 3.3402,2.0824 4.6757,3.0252 1.3354,0.94279 2.5426,1.7106 2.6849,1.6961 0.1422,-0.0145 0.9947,0.37208 1.8973,0.86627 0.9028,0.49419 2.3022,1.1017 3.0983,1.3428 0.9663,0.29257 1.4237,0.63001 1.3845,1.0339 -0.032,0.33275 -1.6199,1.6253 -3.5205,2.8712 -7.2395,4.7458 -9.7114,6.5126 -11.169,7.9729 -0.8278,0.82954 -2.0389,1.9681 -2.6921,2.5216 -0.6533,0.55352 -2.0845,1.9732 -3.18,3.1591 -2.067,2.2373 -2.6849,2.5506 -3.76,1.8818 -1.8777,-1.1681 -3.4762,-3.2693 -4.1389,-5.442 -0.3789,-1.2423 -0.9778,-2.7059 -1.3344,-3.2512 -0.5131,-0.78479 -0.8515,-2.7948 -1.5929,-9.6194 -0.9014,-8.2979 -0.9132,-8.7562 -0.3243,-12.203 0.3365,-1.9698 0.7982,-4.1738 1.0209,-4.8973 0.2228,-0.72348 0.6048,-1.9513 0.8496,-2.7368 0.2449,-0.78545 0.6674,-1.4508 0.9322,-1.4778 z m 96.433,0.62684 c -0.306,0.0475 -0.978,0.57033 -1.6101,1.2705 -0.7223,0.80019 -1.5005,1.4782 -1.7362,1.5023 -0.2356,0.024 -1.2069,0.67301 -2.156,1.453 -0.9491,0.77997 -2.8488,2.2953 -4.2198,3.3574 -2.6525,2.055 -4.2027,4.1886 -5.2212,7.2043 -1.1417,3.3802 -0.7521,5.692 0.694,4.0885 0.3073,-0.34076 1.327,-0.96986 2.2542,-1.3939 1.4136,-0.64647 1.8981,-0.7191 2.9964,-0.44422 1.7319,0.4334 3.4463,1.999 4.2417,3.853 0.7342,1.711 1.402,7.1338 1.2972,10.56 -0.067,2.1705 -0.022,2.3066 0.6661,2.2364 0.8464,-0.0864 2.6351,-2.6426 3.5912,-5.1137 0.9602,-2.4815 1.0592,-4.7852 0.4835,-12.078 -0.2857,-3.6209 -0.4834,-7.81 -0.4311,-9.3002 0.1227,-3.5031 -0.2333,-6.9344 -0.7449,-7.1827 -0.028,-0.0134 -0.061,-0.0191 -0.1049,-0.0124 l -1e-4,1e-5 z m -52.877,54.470999 c -2.5387,0.32758 -4.8696,1.5861 -9.2471,4.562 -3.85,2.6173 -4.9705,3.8448 -6.9151,7.6538 -1.7309,3.3904 -2.1325,7.1741 -1.5248,14.293 0.275,3.2209 0.6475,6.0449 0.8252,6.2758 0.5718,0.74381 2.8159,0.0976 8.3381,-2.4068 1.4692,-0.66634 2.9618,-1.2357 3.3152,-1.2718 0.3532,-0.0361 1.3298,-0.40244 2.1756,-0.80976 3.5859,-1.7271 10.034,-3.9927 13.837,-4.8579 7.0032,-1.5935 8.8165,-2.1356 9.2133,-2.7497 1.1051,-1.7103 -0.8933,-8.748 -3.6836,-12.943 -1.6632,-2.5006 -4.6715,-5.2322 -6.4404,-5.8638 -0.6314,-0.22542 -1.6721,-0.66883 -2.3128,-0.98517 -0.6406,-0.31634 -2.4774,-0.71176 -4.0871,-0.87311 -1.1064,-0.11089 -2.0645,-0.14953 -2.9804,-0.0759 -0.1718,0.0138 -0.344,0.0306 -0.5132,0.0524 z m 1.5813,4.6547 c 2.7631,-0.24743 5.1158,0.55856 8.5711,2.6966 3.13,1.9367 3.2895,2.1186 4.4443,5.2726 1.4373,3.9254 1.6628,5.001 1.2129,5.6717 -0.4862,0.72455 -2.9714,1.0253 -3.5735,0.43401 -0.4132,-0.40569 -1.2339,-2.3814 -1.8961,-4.5764 -0.3905,-1.2946 -3.1415,-3.8106 -5.1468,-4.7054 -2.0528,-0.91605 -4.8237,-1.1897 -8.3117,-0.8335 -2.4158,0.24666 -3.0045,0.44001 -4.6079,1.5881 -1.0095,0.72288 -2.4096,2.1517 -3.1208,3.1761 -1.0387,1.4962 -1.3074,1.715 -1.3731,1.108 -0.28,-2.6595 5.7149,-7.7681 10.843,-9.2416 1.0673,-0.30669 2.0374,-0.50765 2.9584,-0.59013 z m -39.528,5.6723 c 0.9898,-0.10107 2.3576,1.0384 2.8084,2.3402 0.4897,1.4141 -0.2632,1.9515 -1.6854,1.2091 -0.6328,-0.3302 -1.4013,-0.5698 -1.7144,-0.53931 -0.3129,0.0305 -0.9126,-0.15614 -1.3329,-0.41694 -0.7453,-0.46252 -0.7489,-0.4985 0.1588,-1.491 0.5118,-0.55968 1.3099,-1.0555 1.7655,-1.102 z m -18.944,64.867 c 0.9964,-0.12807 1.4112,0.0541 1.4599,0.53073 0.024,0.23283 -1.207,1.9912 -2.7349,3.9086 -1.5278,1.9175 -2.7647,3.6162 -2.7488,3.7718 0.032,0.31857 -2.2482,3.7592 -4.4626,6.7351 -4.4874,6.0306 -8.9319,10.761 -12.213,12.976 -1.5286,1.0319 -1.622,1.0147 -2.5112,-0.44642 -1.2883,-2.1167 -0.8413,-7.6037 0.8908,-10.91 0.1683,-0.32136 0.5423,-1.0878 0.8291,-1.6977 0.7856,-1.6709 5.4863,-7.294 6.8375,-8.1874 0.6529,-0.43164 2.0258,-1.5252 3.0584,-2.4323 1.398,-1.2281 2.4024,-1.7785 3.9281,-2.1524 1.127,-0.27616 2.3664,-0.61104 2.7586,-0.74254 2.3345,-0.78289 3.9119,-1.2257 4.9083,-1.3538 z m 6.6476,103.02 c 1.0511,-0.0903 1.9442,0.0659 2.3048,0.45598 0.1935,0.20928 0.6686,4.3877 1.0516,9.2829 0.8049,10.288 1.1042,9.2985 -3.4425,11.309 -3.8481,1.7014 -9.0696,4.9278 -11.186,6.9031 -0.9515,0.88806 -2.1298,2.3471 -2.6177,3.2514 -0.4878,0.90437 -1.009,1.7176 -1.1527,1.7999 -0.1436,0.0822 -0.239,0.36669 -0.212,0.6323 0.028,0.2656 -0.3198,1.6139 -0.7772,2.9944 -0.8394,2.5328 -0.8408,5.1729 -0.014,11.373 l 0.053,0.40935 c 0.2415,3.9796 0.3624,7.5332 0.2613,8.2 -0.3007,1.9798 -1.8444,4.5664 -4.436,7.4467 -2.2862,2.5407 -3.7353,3.7754 -6.3165,5.392 -0.7624,0.47744 -1.6329,0.88956 -1.9347,0.91192 -0.8406,0.0626 -2.3814,-0.44898 -2.7427,-0.90674 -0.4746,-0.60162 -0.7628,-4.0298 -0.3789,-4.5009 0.5645,-0.69291 -0.7691,-12.776 -1.7241,-15.643 -0.2454,-0.7371 -0.7458,-1.947 -1.2165,-3.1134 -0.2788,-0.93354 -0.5871,-1.8865 -0.8061,-2.5908 -1.6133,-5.1857 -1.3011,-13.521 0.6629,-17.88 0.5558,-1.2336 0.9883,-2.3954 0.9687,-2.5876 -0.056,-0.5493 2.3516,-4.8084 3.5226,-6.2358 0.5824,-0.70996 1.6691,-1.7753 2.4199,-2.3671 0.7507,-0.59178 1.4365,-1.1874 1.5245,-1.3194 0.7159,-1.0742 12.387,-9.4107 13.305,-9.5045 0.1978,-0.0202 0.8801,-0.37103 1.5222,-0.7776 0.6537,-0.41397 2.6065,-1.0047 4.4373,-1.3403 1.7981,-0.32956 4.0223,-0.84697 4.9396,-1.1611 0.667,-0.22848 1.3529,-0.37878 1.9836,-0.43299 z m 9.2496,15.774 c 0.2664,2.0448 0.6378,4.5207 1.0535,6.9323 -0.415,-2.4117 -0.7889,-4.8873 -1.0535,-6.9323 z m 46.843,110.99 c 1.9841,-0.27668 8.8906,1.3352 12.628,3.0428 3.8192,1.7455 4.7912,2.3146 5.8683,3.422 1.1306,1.1621 1.2748,1.5389 1.5113,3.8553 0.295,2.8888 -0.012,3.8515 -2.5589,7.8888 -1.4944,2.3683 -3.424,4.2676 -7.0238,6.9275 -2.5584,1.8903 -6.8257,3.4942 -13.106,4.91 -1.4866,0.33517 -3.8451,0.79847 -5.2409,1.0306 -3.1972,0.5317 -11.381,0.60106 -11.983,0.106 -1.065,-0.87583 2.5459,-5.6497 8.2518,-10.924 3.7422,-3.4593 7.7585,-9.1358 7.6124,-10.755 -0.028,-0.31221 0.4515,-1.1685 1.0726,-1.907 0.7196,-0.85562 1.163,-1.8427 1.2204,-2.717 0.1402,-2.1345 0.7269,-4.2868 1.2915,-4.7291 0.091,-0.0711 0.2519,-0.1217 0.4571,-0.15034 z"
     id="path2923-2" />
  <path
     style="fill:#ffffff"
     inkscape:connector-curvature="0"
     d="m 254.75442,111.46742 c -0.9211,0.0824 -1.8912,0.28344 -2.9585,0.59013 -5.1283,1.4736 -11.123,6.5821 -10.843,9.2416 0.066,0.60692 0.3344,0.3881 1.3731,-1.1081 0.7113,-1.0244 2.1113,-2.4532 3.1208,-3.1761 1.6033,-1.1481 2.1921,-1.3414 4.6079,-1.5881 3.488,-0.35616 6.2588,-0.0825 8.3117,0.8335 2.0053,0.89484 4.7562,3.4108 5.1468,4.7054 0.6623,2.1951 1.4829,4.1708 1.896,4.5764 0.6022,0.59133 3.0874,0.29054 3.5736,-0.43401 0.45,-0.67067 0.2244,-1.7462 -1.2129,-5.6717 -1.1548,-3.154 -1.3143,-3.3359 -4.4443,-5.2726 -3.4553,-2.138 -5.808,-2.944 -8.571,-2.6966 z m -39.528,5.6723 c -0.4556,0.0465 -1.2537,0.54234 -1.7655,1.102 -0.9077,0.99253 -0.9041,1.0285 -0.1588,1.491 0.4202,0.2608 1.02,0.44742 1.3329,0.41694 0.3131,-0.0305 1.0816,0.20911 1.7142,0.53932 1.4224,0.74239 2.1752,0.20506 1.6855,-1.2091 -0.4508,-1.3018 -1.8185,-2.4413 -2.8083,-2.3402 z m 61.365,30.915 c -5.9853,0.77904 -12.089,6.1641 -18.075,13.909 -8.9879,11.629 -5.2627,19.274 0.3137,24.06 5.5764,4.7861 19.619,0.6778 26.704,-8.6143 7.0844,-9.2921 8.3554,-20.4 -0.061,-26.771 -2.7237,-2.0618 -5.496,-2.8686 -8.3006,-2.6436 -0.1928,0.0155 -0.3885,0.0342 -0.5816,0.0594 z m -80.309,33.951 c -0.9964,0.12807 -2.5738,0.57092 -4.9084,1.3538 -0.3921,0.13151 -1.6316,0.4664 -2.7585,0.74254 -1.5257,0.37389 -2.53,0.92433 -3.9281,2.1524 -1.0326,0.9071 -2.4056,2.0007 -3.0584,2.4323 -1.3513,0.89342 -6.0519,6.5165 -6.8376,8.1874 -0.2867,0.60989 -0.6607,1.3764 -0.829,1.6977 -1.7322,3.3063 -2.1791,8.7933 -0.8909,10.91 0.8893,1.4611 0.9826,1.4783 2.5113,0.44643 3.2813,-2.2149 7.7258,-6.9458 12.213,-12.976 2.2144,-2.9758 4.4951,-6.4165 4.4626,-6.7351 -0.016,-0.15563 1.2209,-1.8543 2.7488,-3.7718 1.5279,-1.9175 2.7586,-3.6758 2.7349,-3.9086 -0.049,-0.47657 -0.4635,-0.65878 -1.4599,-0.53073 z m 25.038,72.796 c -0.3669,0.79102 -0.7767,1.6396 -1.1357,2.3051 -1.9298,3.578 -3.9361,9.4138 -5.1378,14.904 -0.2497,1.1408 -0.6683,2.5938 -0.9262,3.2285 -0.258,0.63469 -0.4229,1.6028 -0.3674,2.1575 0.057,0.5546 -0.024,1.3095 -0.1744,1.677 -1.1178,2.7436 -1.6149,13.879 -0.9458,21.205 0.3299,3.611 1.7668,10.673 2.8972,14.268 0.4324,1.3754 0.9583,3.2297 1.1696,4.1206 0.2113,0.89097 0.6743,2.4199 1.0382,3.3966 0.3638,0.97678 1.2155,3.6274 1.8918,5.8904 0.6763,2.263 1.6783,5.2301 2.2174,6.5945 0.539,1.3645 1.224,3.1196 1.5272,3.8998 2.5027,6.4383 10.14,20.836 15.738,29.663 0.7378,1.1636 1.4527,2.3066 2.1205,3.3898 3.1765,-4.6311 16.521,-19.399 20.261,-23.073 4.2588,-4.1837 3.2381,-8.9014 0.7662,-12.13 -2.4718,-3.2287 -8.3327,-8.1185 -7.6528,-31.618 0.6799,-23.4995 -4.9552,-32.834 -11.973,-42.561 -6.3798,-8.8419 -14.418,-8.0038 -21.314,-7.3177 z m 108.1,120.93 c -0.4389,0.26252 -0.9111,0.5565 -1.3874,0.85602 -1.9055,1.1981 -3.8993,2.3899 -4.43,2.653 -1.8991,0.94149 -1.1326,1.2476 3.1597,1.2674 0.539,0.004 1.1753,0.38881 1.5587,0.93544 0.5912,0.84252 0.5946,0.99276 0.04,1.7472 -0.334,0.45438 -1.2274,1.0546 -1.9828,1.3431 -1.3015,0.49696 -3.9371,2.0165 -10.774,6.1928 -1.6511,1.0085 -3.2713,1.8664 -3.5968,1.8997 -0.3254,0.0333 -1.1621,0.50855 -1.8614,1.0658 -0.6992,0.55716 -1.9157,1.2789 -2.694,1.6001 -0.7783,0.32116 -2.0722,0.96444 -2.8837,1.4352 -0.8116,0.47071 -1.636,0.8814 -1.8321,0.90142 -0.1961,0.0202 -2.1144,1.1156 -4.2674,2.4405 -5.8471,3.5983 -13.852,7.8897 -14.922,7.9989 -1.271,0.12977 -4.638,1.9701 -4.5831,2.5073 0.052,0.51212 8.1039,6.3144 10.696,7.7106 0.9986,0.53786 2.5998,1.4493 3.5707,2.0204 0.9708,0.57111 2.5444,1.3582 3.4971,1.7514 1.6618,0.68528 4.1978,2.0842 7.1069,3.9292 1.3681,0.86739 2.9785,1.5508 10.14,4.2992 8.1509,3.1279 10.095,3.8121 13.518,4.7723 3.3577,0.94171 4.7456,1.1751 11.31,1.8754 1.5377,0.16384 3.8917,0.43684 5.2238,0.60729 5.5541,0.71045 8.1127,0.50159 14.262,-1.1452 4.4977,-1.2043 8.4424,-2.3983 10.192,-3.0916 0.7796,-0.30902 2.0604,-0.76406 2.8458,-1.0164 0.7854,-0.25239 2.0649,-0.72101 2.8435,-1.0393 3.4392,-1.4062 5.2102,-1.3314 5.369,0.22378 0.1334,1.3065 0.6066,1.2006 5.2316,-1.1218 0.7246,-0.36396 1.4638,-0.72665 2.0953,-1.032 -0.2503,-0.61393 -0.523,-1.2817 -0.8414,-2.0341 -1.4118,-3.3369 1.1671,-13.508 1.1671,-13.508 0,0 -2.66,1.4791 -5.3074,3.0882 -2.6472,1.6093 -23.643,7.1067 -34.422,5.1278 -10.779,-1.9787 -15.424,-14.636 -15.424,-14.636 0,0 2.1894,1.5284 5.5189,1.5796 4.5592,0.07 10.329,-3.7334 14.363,-7.4925 4.0344,-3.7591 8.4469,-10.368 8.4469,-10.368 0,0 -10.734,2.3008 -18.934,-1.9496 -7.4237,-3.8483 -8.8506,-7.9817 -12.014,-13.395 z"
     id="path3075-7" />
  <path
     style="fill:none;stroke-width:0.38215673"
     inkscape:connector-curvature="0"
     d="M 77.245122,76.455861 A 262.19773,262.19773 0 1 0 447.25882,448.04762 262.19773,262.19773 0 1 0 77.245122,76.455861 Z"
     id="path3240" />
  <metadata
     id="metadata37">
    <rdf:RDF>
      <cc:Work>
        <dc:format>image/svg+xml</dc:format>
        <dc:type
           rdf:resource="http://purl.org/dc/dcmitype/StillImage" />
        <cc:license
           rdf:resource="http://creativecommons.org/publicdomain/zero/1.0/" />
        <dc:publisher>
          <cc:Agent
             rdf:about="http://openclipart.org/">
            <dc:title>Openclipart</dc:title>
          </cc:Agent>
        </dc:publisher>
        <dc:title></dc:title>
        <dc:date>2011-08-12T13:48:54</dc:date>
        <dc:description>animal, clip art, clipart, fir, fox, fun, is, orienteering, orientering, tree, </dc:description>
        <dc:source>http://openclipart.org/detail/154939/orienteering-is-fun---o-fox-by-morits</dc:source>
        <dc:creator>
          <cc:Agent>
            <dc:title>morits</dc:title>
          </cc:Agent>
        </dc:creator>
        <dc:subject>
          <rdf:Bag>
            <rdf:li>animal</rdf:li>
            <rdf:li>clip art</rdf:li>
            <rdf:li>clipart</rdf:li>
            <rdf:li>fir</rdf:li>
            <rdf:li>fox</rdf:li>
            <rdf:li>fun</rdf:li>
            <rdf:li>is</rdf:li>
            <rdf:li>orienteering</rdf:li>
            <rdf:li>orientering</rdf:li>
            <rdf:li>tree</rdf:li>
          </rdf:Bag>
        </dc:subject>
      </cc:Work>
      <cc:License
         rdf:about="http://creativecommons.org/publicdomain/zero/1.0/">
        <cc:permits
           rdf:resource="http://creativecommons.org/ns#Reproduction" />
        <cc:permits
           rdf:resource="http://creativecommons.org/ns#Distribution" />
        <cc:permits
           rdf:resource="http://creativecommons.org/ns#DerivativeWorks" />
      </cc:License>
    </rdf:RDF>
  </metadata>
</svg>
